inDegrees=yes
name=ik_S52_A13_T02
DataType=double
version=3
OpenSimVersion=4.3-2021-08-27-4bc7ad9
endheader
time	pelvis_tilt	pelvis_list	pelvis_rotation	pelvis_tx	pelvis_ty	pelvis_tz	hip_flexion_r	hip_adduction_r	hip_rotation_r	knee_angle_r	knee_angle_r_beta	ankle_angle_r	subtalar_angle_r	mtp_angle_r	hip_flexion_l	hip_adduction_l	hip_rotation_l	knee_angle_l	knee_angle_l_beta	ankle_angle_l	subtalar_angle_l	mtp_angle_l	lumbar_extension	lumbar_bending	lumbar_rotation	arm_flex_r	arm_add_r	arm_rot_r	elbow_flex_r	pro_sup_r	wrist_flex_r	wrist_dev_r	arm_flex_l	arm_add_l	arm_rot_l	elbow_flex_l	pro_sup_l	wrist_flex_l	wrist_dev_l
8.479999999999908	-1.337417244296014	-0.01196888064471136	20.26136878577647	0	0.9399999999999999	0	23.0055046977837	-8.293881060775483	-7.073309847171832	27.55700227166581	0.4809604216201252	0	0	0	23.0055046977837	-8.293881060775483	-7.073309847171832	27.55700227166581	0.4809604216201252	0	0	0	-0.1055606467866726	0.3842539419521904	8.960540766873917	73.42733261415825	6.812994169500422	3.193260005593575	54.77887484413667	104.8201166889371	0	0	71.69518906772011	-12.38944195963695	12.00873805557708	63.87799254552949	64.96109218162447	0	0
8.499999999999908	-1.412992654432447	-0.0532372942168615	20.15514718718662	0	0.9399999999999999	0	23.41654900068728	-8.364253263315236	-7.164452585290501	28.04456826581901	0.489470053538858	0	0	0	23.41654900068728	-8.364253263315236	-7.164452585290501	28.04456826581901	0.489470053538858	0	0	0	-0.2037773384116314	0.3756441918724812	8.984132293434925	73.0248006726151	6.884875922235912	2.693379736708068	56.35030137667561	105.4730206065721	0	0	72.05119381574947	-12.04332152839512	13.26943473991979	63.1021358904493	70.12641525789752	0	0
8.519999999999907	-1.404331572179266	-0.01455982216494726	20.27615341607702	0	0.9399999999999999	0	23.43106272363657	-8.367758573060728	-7.168368433652815	28.05808805303907	0.4897060183400171	0	0	0	23.43106272363657	-8.367758573060728	-7.168368433652815	28.05808805303907	0.4897060183400171	0	0	0	-0.1829685663987733	0.4110538958694564	8.799353995970062	72.29689689692825	6.861880069303876	3.107236346618071	57.06013936455899	102.2883566816686	0	0	72.23318067863708	-11.84316274499359	13.40046730268251	62.59173097194607	71.44748079212654	0	0
8.539999999999907	-1.353026211534351	-0.02074941833236932	20.79601385443948	0	0.9399999999999999	0	23.46805441250851	-8.376678225797457	-7.178348447557317	28.09243984720543	0.4903055702521875	0	0	0	23.46805441250851	-8.376678225797457	-7.178348447557317	28.09243984720543	0.4903055702521875	0	0	0	-0.1447829060721226	0.3839957370893669	8.232298901974922	71.70255234711713	6.782418512898774	3.302636529233435	57.08603092262838	94.60256676900303	0	0	72.67758969913547	-11.48326352539019	13.36649535959778	61.05806388988979	74.62336772902624	0	0
8.559999999999906	-1.379796528162431	-0.1197319414518927	20.91522980032717	0	0.9399999999999999	0	23.48146905442094	-8.379910740796154	-7.181965910629014	28.10490776733387	0.4905231765093045	0	0	0	23.48146905442094	-8.379910740796154	-7.181965910629014	28.10490776733387	0.4905231765093045	0	0	0	-0.2094771496512282	0.2998649622277014	8.105615550348983	71.72508503301974	6.607663219722246	2.760064267100118	57.77796145953754	91.32795206180633	0	0	73.25789510602198	-11.38712073419433	13.9999289528263	59.42828652793186	78.54476176276819	0	0
8.579999999999906	-1.367900310327565	-0.120679469489229	21.10665857709463	0	0.9399999999999999	0	23.49473613400476	-8.383091806262783	-7.185533255107335	28.1172843808811	0.4907391891659506	0	0	0	23.49473613400476	-8.383091806262783	-7.185533255107335	28.1172843808811	0.4907391891659506	0	0	0	-0.1966710930529032	0.2922861850684456	7.902722262237005	71.71193201532078	6.533818765562494	2.775509209993128	59.41736917528851	92.49771711985997	0	0	73.3108861958265	-11.4185193795379	14.4819502765166	58.38180177056865	83.47670709936145	0	0
8.599999999999905	-1.373588046194872	-0.09303905695844493	20.88836253172487	0	0.9399999999999999	0	23.50924113105115	-8.386582256961145	-7.189443100671308	28.1307546479758	0.4909742896778762	0	0	0	23.50924113105115	-8.386582256961145	-7.189443100671308	28.1307546479758	0.4909742896778762	0	0	0	-0.187991079808274	0.3217982001149673	8.102697171776521	71.82651175673617	6.170499424801866	1.984572936814519	59.99444670153248	93.42162427415076	0	0	73.3450364324916	-11.08703666434448	14.65822159891644	57.60979302289766	88.50374072708766	0	0
8.619999999999905	-1.442391634603222	-0.1086370705569024	20.77590861489556	0	0.9399999999999999	0	23.52454143709972	-8.390268754660511	-7.193571503363368	28.14493070296715	0.4912217085124189	0	0	0	23.52454143709972	-8.390268754660511	-7.193571503363368	28.14493070296715	0.4912217085124189	0	0	0	-0.2549600921962113	0.3321087916070832	8.20759524434396	71.83239182513879	5.757188212693337	1.393407032120851	59.67190203841	90.36294683678319	0	0	73.77347511728237	-10.89623295629227	15.02940709548515	57.06129381651943	89.69406335767978	0	0
8.639999999999905	-1.424226223970479	-0.1383804737557178	20.73963467717946	0	0.9399999999999999	0	23.53737485320408	-8.393313996553559	-7.197002645428082	28.15697563186056	0.4914319321797775	0	0	0	23.53737485320408	-8.393313996553559	-7.197002645428082	28.15697563186056	0.4914319321797775	0	0	0	-0.2477504267738318	0.2974640501425331	8.265745680999611	71.50966073110826	5.42225172554719	1.204545416908362	60.13063766416372	90.24308548144595	0	0	74.08571221116738	-10.79707556680067	15.12999721068664	56.43097612937436	92.75829433443182	0	0
8.659999999999904	-1.407215191099538	-0.1578090404299586	20.7540711232056	0	0.9399999999999999	0	23.55857888578632	-8.398355165364785	-7.202682896419812	28.17676746440776	0.4917773648227295	0	0	0	23.55857888578632	-8.398355165364785	-7.202682896419812	28.17676746440776	0.4917773648227295	0	0	0	-0.2376572574893415	0.2725932897235723	8.252839662213407	71.63019847899659	4.928803269473406	0.8631600187918737	60.63826577362478	90.67108881034665	0	0	74.09319151589089	-10.86120735465106	15.09236430019558	56.07365207773109	98.36856228413173	0	0
8.679999999999904	-1.387095141954414	-0.1375578413273415	20.75700777829292	0	0.9399999999999999	0	23.58339696328845	-8.404248661132392	-7.209328687987563	28.19992000355225	0.4921814528609977	0	0	0	23.58339696328845	-8.404248661132392	-7.209328687987563	28.19992000355225	0.4921814528609977	0	0	0	-0.2107302323878515	0.2837964469809316	8.118915185607023	71.60274948035223	4.953436739288959	0.9310597194442154	60.59056216756862	91.59742266645732	0	0	74.31054787875416	-10.83664701713754	14.97942203556825	55.6680204513972	103.5458164219736	0	0
8.699999999999903	-1.389242185208453	-0.1372549402634456	20.54037095030612	0	0.9399999999999999	0	23.59715046594737	-8.407527882916497	-7.213020235745485	28.21271122862734	0.4924047018539218	0	0	0	23.59715046594737	-8.407527882916497	-7.213020235745485	28.21271122862734	0.4924047018539218	0	0	0	-0.2125392507673196	0.2838935721886406	8.267417073654958	71.51435512482267	4.639393234290717	0.942574125781061	60.66400882979322	91.84327941549785	0	0	74.64116584776561	-10.65533350901092	14.91193490205197	55.45444146373368	105.9394747565158	0	0
8.719999999999903	-1.408394937006963	-0.1753425430627076	20.32943571067577	0	0.9399999999999999	0	23.60542708171196	-8.409501018628225	-7.215241974400533	28.22040287820764	0.4925389464640077	0	0	0	23.60542708171196	-8.409501018628225	-7.215241974400533	28.22040287820764	0.4925389464640077	0	0	0	-0.244131418264124	0.2546660614812167	8.348163293821852	71.61570330649627	4.100527371681886	0.5655065575261604	60.26154085622155	90.80466382762461	0	0	74.69455193475342	-10.88710511817522	14.70378310991316	56.12739392019686	106.630630091672	0	0
8.739999999999903	-1.408661941217365	-0.1704474063927065	19.99489209047396	0	0.9399999999999999	0	23.61941771101896	-8.412842048006263	-7.219002170904511	28.23337295330338	0.4927653169786592	0	0	0	23.61941771101896	-8.412842048006263	-7.219002170904511	28.23337295330338	0.4927653169786592	0	0	0	-0.2424971227112916	0.2584828601327105	8.571066188115363	71.77418530465911	3.419062995670048	0.14894413998327	60.73978607205182	94.04225836435187	0	0	74.54735769055308	-11.22433663016267	14.47142597827214	56.66729576431742	107.2186792925833	0	0
8.759999999999902	-1.403110138416864	-0.1556832159601096	19.61136961108353	0	0.9399999999999999	0	23.64965066969195	-8.419999754147142	-7.227091140679805	28.26151452222974	0.4932564800131011	0	0	0	23.64965066969195	-8.419999754147142	-7.227091140679805	28.26151452222974	0.4932564800131011	0	0	0	-0.2345913133609592	0.2675513786050234	8.875313799578391	71.81019401104638	3.378845186696559	0.06915691434867249	61.59565548340307	98.83390862888369	0	0	74.11622972014409	-11.59728200945978	14.34547843170958	57.50304665490609	107.7313125839238	0	0
8.779999999999902	-1.396792659303006	-0.1458019756678172	19.42126978870304	0	0.9399999999999999	0	23.66079170384481	-8.422649560373468	-7.230080131706807	28.27184553701363	0.4934367902361523	0	0	0	23.66079170384481	-8.422649560373468	-7.230080131706807	28.27184553701363	0.4934367902361523	0	0	0	-0.2255173861284522	0.2743066818581625	9.03244253014199	71.84253463698919	2.534350719389377	-0.009361085387151899	62.84835569012394	99.4302791961112	0	0	73.46755357521728	-11.79923642361252	14.40431739676412	58.26941371871015	107.7789349188711	0	0
8.799999999999901	-1.394233270888415	-0.1457329751580427	19.40473980735847	0	0.9399999999999999	0	23.67053493763605	-8.424943797436878	-7.232678462596022	28.2809562611815	0.4935958023701225	0	0	0	23.67053493763605	-8.424943797436878	-7.232678462596022	28.2809562611815	0.4935958023701225	0	0	0	-0.2232561121851099	0.2733650835429631	9.078056193189642	71.86896363692331	2.334113575386252	-0.1963999197928892	64.19967468960601	99.03265189920653	0	0	72.70251140081105	-12.02263415792305	14.60083079049833	59.09535080888558	106.7679268454499	0	0
8.819999999999901	-1.385215882753839	-0.1479275217108218	19.08325530955621	0	0.9399999999999999	0	23.88644096608896	-8.461550197375807	-7.28033388549905	28.53467739773428	0.4980240715848707	0	0	0	23.88644096608896	-8.461550197375807	-7.28033388549905	28.53467739773428	0.4980240715848707	0	0	0	-0.2236767488310417	0.2673250973950696	9.400068980348369	71.60346875052318	0.5844707139943869	-1.120168866586246	67.17182005109902	100.0435385312127	0	0	72.68961565803733	-12.0134862436983	14.63562406280299	59.07899274058791	105.5255896635111	0	0
